<!--?xml version="1.0" encoding="utf-8"?-->
<!-- Generator: Adobe Illustrator 21.0.0, SVG Export Plug-In . SVG Version: 6.00 Build 0)  -->
<svg version="1.1" xmlns="http://www.w3.org/2000/svg" xmlns:xlink="http://www.w3.org/1999/xlink" x="0px" y="0px" viewBox="0 0 701.8 224.4" enable-background="new 0 0 701.8 224.4" xml:space="preserve" style="">
<g id="Layer_1">
	<g>
		<path fill="none" stroke="#FFFFFF" stroke-width="2" stroke-miterlimit="10" d="M88.9,166.8H90l0.1-0.1c0.5-0.4,1-0.6,1.4-0.6
			l0.8,0.1l1-0.1l1,0.1l1-0.1l1.6,0.5l1.7-0.3c0.2,0,0.5,0.1,1,0.4c0.5,0.4,1,0.5,1.4,0.5c1.4,0,2.6-0.6,3.6-1.7
			c1-1.1,1.5-2.4,1.5-3.8c0-0.7-0.4-1.6-2.1-1.7l-0.3-0.7l-0.1,0c-0.4-0.1-0.7-0.1-1-0.1l-2.6-0.5l-1.2,0.1c-3.4,0-4.6,0-5-0.1
			l0.4-1.6l0-0.1c0-0.1,0-0.2-0.1-0.2c0.9-0.9,1.3-1.7,1.3-2.4c0.4-0.5,0.7-1,0.7-1.4c0-0.2,0.3-0.9,1.3-3l0.3-0.5l0-0.9
			c0,0,0-0.2,0.7-1c0.5-0.6,0.8-1.1,1-1.5c0.1-0.3,0.2-0.6,0.4-0.7l0.1-0.1v-0.8l0.7-0.7l-0.3-1.7h0.9l0.8-1.3
			c1.3-2.2,2.1-3.7,2.4-4.6c0.3-1,0.5-1.4,0.5-1.5c0.4-1,0.7-2.8,0.7-5.4c0-0.9-0.5-1.9-1.7-3c-1.1-1.2-2.1-1.7-3-1.7
			c-2.9,0-4.4,1.6-4.4,4.6c0,1.1-0.1,1.4-0.2,1.5c-0.2,0.3-0.2,0.6-0.2,0.8l-0.3,1.4c-0.4,0.8-0.6,1.4-0.7,1.8
			c0,0.3-0.2,0.6-0.5,0.9c-0.4,0.4-0.6,0.9-0.6,1.4l0.1,2l-0.4,0.7c-1,0.2-1.6,0.7-1.6,1.4v1.7l-0.1,0.1c-0.8,0.4-1.2,1.1-1.2,2.1
			v0.3c-1.1,1.2-1.7,2.1-1.9,2.7l-0.4,1.4l-1.6,2.9l-0.6,1.7c-0.4,0.6-0.7,1.1-0.9,1.6c-0.2,0.4-0.4,0.7-0.8,0.9
			c-0.5,0.3-0.9,0.9-1.1,1.8c-0.2,0.8-0.4,1.3-0.7,1.6l-5.1,1.1c-2.6,0-5.3,0.4-8,1.1c-1.6,0.7-3.2,1-4.5,1c0,0-0.2,0-1-0.2l-0.1,0
			l-1.7,0.7c-0.1,0-0.3,0.2-0.5,0.6c-0.4-0.3-0.6-0.3-0.7-0.3l-6,1.2c-0.6,0-1.4,0.2-2.4,0.7c-1.2,0.6-1.5,0.6-1.5,0.6
			c-0.5,0-0.9-0.1-1.2-0.3l0.5-1l0-0.1c0.1-0.5,0.4-1.3,1-2.2c0.6-1,0.9-1.7,0.9-2.2v-0.9c0.5-0.1,1-0.6,1.3-1.4l0.1-0.3l1.3-1.5
			l1.2-2.4l1.6-2.1l1.1-2.5l0.8-1.1l0-0.1c0.1-0.6,0.4-1.3,0.9-2.1c0.6-0.8,0.8-1.7,0.8-2.6l0.2-0.7c0.4-0.4,0.5-0.8,0.5-1.1l-0.1-1
			l0.3-1.5V139c0-2.9-0.6-4.8-1.8-5.6c-1.1-0.8-1.9-1.5-2.3-1.9c-0.5-0.5-1.3-0.8-2.5-0.8c0,0,0,0,0,0l-1.6-0.3
			c-0.1,0-0.2,0-0.7,0.3c-0.3,0.1-0.7,0.2-1.2,0.3c-0.6,0-1.5,0.2-2.6,0.5c-1.1,0.3-2,0.4-2.8,0.5c-0.8,0.1-1.5,0.4-2.2,1.1h-1
			l-0.1,0c-0.3,0.2-0.5,0.2-0.6,0.2h-0.1l-0.1,0.1c-0.6,0.7-1.2,1-1.8,1l-0.9,0.3l-0.9,0.6l-1.3-0.1c-0.2,0-0.3,0.1-1,1
			c-0.4,0.5-1.2,1-2.5,1.4c-1.4,0.4-2.3,0.8-2.9,1.3c-0.5,0.4-1.4,0.9-2.6,1.4c-1.2,0.5-2.5,1.4-3.8,2.5c-0.8,0.1-1.4,0.2-1.8,0.3
			L22,144c-5.8,2.9-8.6,5.3-8.6,7.4c0,1.9,0.7,3.2,2,3.9c1.7,0.9,2.3,1,2.5,1c0.6,0,1.3-0.4,2.1-1.4c0.5-0.1,0.9-0.2,1.2-0.3l0.1,0
			l0.7-1.1l0.8-0.6l0.1-0.1c3.1-5.1,4.1-5.7,4.4-5.7c0.5,0,1-0.3,1.6-0.8c0.5-0.5,1.4-1.1,2.7-1.9l2.1-1.7H35l0.1-0.1
			c0.2-0.2,0.4-0.5,0.6-1.1c1.9-0.6,3.1-1.1,3.6-1.5c0.5-0.4,0.8-0.5,0.9-0.5l1.5,0.2l0.1-0.1c1.1-1,2-1.5,2.9-1.6
			c0.9-0.1,1.8-0.5,2.8-1l1.1,0.1l4.9-1c0.2,0,0.4,0.4,0.5,1.7c-0.4,0.5-1,1.6-1.8,3.4l-0.7,1.8l-1,1.3l0,0.1c-0.3,1-1,2.2-1.9,3.5
			c-0.9,1.3-1.9,2.9-2.9,4.8l-0.9,1.8c-1.2,1.2-2,2.3-2.4,3.3c-0.3,0.9-0.9,1.8-1.6,2.6l-0.1,0.1v1.1c-0.1,0.1-0.4,0.6-1.5,1.8
			c-1.4,1.7-1.4,1.9-1.4,2.1v0.7c-0.6,1-1.3,2.1-2.2,3.3l-0.6-0.1l-0.9,0.5c-1.4,0-2.4,0.3-3,0.9c-0.7,0.6-1.1,0.8-1.3,0.8l-0.1,0
			c-2.2,0.6-4,1.5-5.6,2.5c-1.6,1.1-2.4,2.2-2.4,3.2c0,0.2,0.1,0.3,0.9,0.8c0.7,0.5,1,0.5,1.1,0.5h0.1l0.1,0
			c0.6-0.2,1.1-0.2,1.4-0.2c1,0,1.7-0.1,2.2-0.2c0.4-0.1,0.8-0.2,1.1-0.2c0.3,0,0.7-0.1,1-0.2c0.3-0.1,0.6-0.1,0.8-0.2
			c0,0,0.2,0.1,0.6,1.1c-0.8,0.7-2.2,2.9-4.1,6.8l-0.4,0.7c-1.2,1.2-1.7,2.1-1.7,3c0,0.8-0.3,1.4-0.9,1.9c-0.7,0.6-1,1.2-1,1.7v0.1
			c0,0.1-0.3,0.6-1.3,2.3l-0.5,1.2l-0.2,1.1l-0.6,1c-0.2,0.5-0.5,0.9-0.7,1.1c-0.2,0.3-0.5,0.8-0.8,1.6c-0.3,0.7-0.6,1.3-0.9,1.8
			c-0.4,0.5-0.7,1.9-1,4.2l-0.5,3.1c0,2.2,0.9,4.4,2.7,6.4c2.5,2.8,3.3,3.1,3.7,3.1c1.1,0,2.4-0.5,2.4-2.8l0-0.6
			c-0.1-0.6-0.2-0.9-0.3-1c0.1-0.6,0.5-1.3,1.4-2.1l0.1-0.1l-0.4-2.3c0.8-0.3,1.2-0.7,1.2-1.2c0-0.1,0-0.1-0.6-1.9
			c0.1-0.2,0.6-0.3,0.9-0.3c0.8-0.1,1.3-0.6,1.3-1.5c0-0.2-0.1-0.4-0.2-0.5l-0.2-0.7c0-0.1,0.1-0.3,0.6-0.4l0.1,0l0.1-0.1
			c0.7-1,1.3-2.4,1.8-4.2l0.8-2.4l0-1.3l0.8-0.9c1.1-0.9,1.7-1.7,1.8-2.4c0.1-0.8,0.2-1,0.2-1l0.6-1.1l0-0.4
			c-0.1-0.3-0.1-0.5-0.2-0.7c0.3-0.2,0.6-0.4,1-0.7c0.5-0.3,0.8-0.8,0.8-1.3v-1.5l0.2-0.4c0.6-0.1,1.1-0.7,1.5-1.7
			c0.6-1.5,1.1-2.6,1.7-3.3c0.5-0.7,0.8-1.2,0.8-1.5l1.2-0.7l2.7,0.2l0.6,0.4c0.2,0.2,0.6,0.4,1.3,0.5c0.5,0.1,0.9,0.2,1,0.5
			c0.3,0.5,0.4,0.6,0.4,0.6l7.9,3.8c0.2,0.3,0.4,0.6,0.5,0.7c0.1,0.1,0.2,0.2,0.5,0.8c0.2,0.5,0.9,0.9,2.1,1.1
			c-0.6,0.7-0.6,1-0.6,1.3l1.7,6.4c0,0.4,0.2,1.4,0.6,3.1c-0.1,0.2-0.2,0.5-0.3,0.8c-0.2,0.4-0.3,0.6-0.3,0.9l0.3,2.3l-0.4,2.8
			l0,0.6l0.1,1.8v0.8c0,1.3,0.3,2.4,1,3.3c0.7,1,0.9,1.4,1,1.6c0.1,0.4,0.5,0.8,1.1,1.1c0.6,0.3,1,0.6,1.4,0.9
			c0.4,0.3,1.2,0.5,2.4,0.5c1.3,0,2.2-0.2,2.9-0.6c0.7-0.4,1.1-0.9,1.3-1.5l0.5-1.5l0-0.1c0-0.1,0-0.2-1-1.1l0.1-0.7
			c0-0.7-0.4-1.3-1.3-1.9c0.5-2.5,0.6-3,0.6-3.1c0-0.3-0.1-0.5-0.2-0.7L70,204c0-0.1,0.2-0.2,0.7-0.2l0.1,0l0.1-0.1
			c0.4-0.4,0.6-1,0.6-1.8c0-0.1,0-0.4-0.3-0.9c0.9-0.4,1.4-0.9,1.4-1.5V199c0.7-0.2,1.1-1,1.3-2.4l0-0.1l-0.4-0.9
			c0-0.1,0.2-0.3,0.6-0.6c0.5-0.4,1-1,1.6-1.8c0.5-0.8,0.9-1.3,1.1-1.5c0.1-0.2,0.4-0.6,1.2-2.3c0.6-1.3,0.9-2.5,1.1-3.5
			c0.1-1,0.5-1.7,1.2-2.2c0.8-0.6,1.2-1.2,1.2-1.8c0-0.5,0.2-1,0.4-1.5l0-0.1l-0.1-0.8c0.9-0.3,1.6-1.2,1.9-2.6
			c0.5-0.3,0.8-0.5,0.9-0.7c0.5-1.3,1.4-3.1,2.6-5.6C88.3,167.8,88.7,167,88.9,166.8z M70.3,182.6l-0.5,0.1l-0.5,1
			c-0.5,0.7-0.7,0.9-0.7,1l-2.4,5.5c-0.2,0.6-0.4,1.1-0.6,1.6c-0.2-0.3-0.5-1-0.8-2.1c-0.4-1.3-0.8-2.5-1.3-3.4
			c-0.5-0.9-0.9-1.6-1.1-2.1c-0.3-0.5-1.3-1.4-3.2-2.6c-1.9-1.2-3.1-1.8-3.9-1.8c-0.2,0-0.4,0-0.5,0.1l-0.8-0.7l-2.4-0.8
			c-1-0.3-1.2-0.3-1.3-0.3l-1,0.2c-0.8-0.2-1.5-0.4-2.2-0.6c-0.8-0.1-1.2-0.3-1.3-0.5l-1-0.4l-0.1,0c-1.2,0-1.6-0.1-1.7-0.2
			c0.1-0.3,0.7-1.2,2.6-4.2c0.2,0.1,0.3,0.1,0.4,0.1c0.4,0,1.1-0.2,2.2-0.5l0.1,0c0.7-0.4,1.5-0.7,2.4-0.8c1-0.1,1.8-0.8,2.4-1.9
			c0,0,0,0.1,0.1,0.2c0.1,0.5,0.5,0.7,0.7,0.7l1.4,0.4l0.2,0l0.5-0.1c1.1,0,2-0.5,2.8-1.4l1.2,0.5l1.5,0l1.6,0.1l3.1-0.4
			c0.6,0,1.3-0.1,2-0.4c0.9-0.3,1.1-0.4,1.2-0.4c0.5,0,1,0,1.5-0.1l0.6,0.5h0.3l1.9-0.8h0.2c0.5,0.2,0.7,0.3,0.8,0.3H75l0.1,0
			c0.7-0.2,1.2-0.4,1.6-0.4l0.3,0c0.5,0.1,0.6,0.2,0.6,0.2l0.1,0.1h0c-0.5,0.6-0.8,1.6-1.1,3l-0.4,0.2c-0.1,0-0.3,0.2-1.1,1.4
			c-0.5,0.9-0.9,1.7-1.1,2.5l-1.6,2l-0.7,2c-1.1,1.1-1.6,1.9-1.6,2.5C70.2,182.2,70.2,182.4,70.3,182.6z M32.1,174.9
			c0,0.1,0,0.2-0.3,0.2c-0.3,0-0.7,0-0.9,0c0.3-0.2,0.6-0.3,1-0.3C32.1,174.8,32.1,174.8,32.1,174.9z" class="dOjYfgmv_0"></path>
		<path fill="none" stroke="#FFFFFF" stroke-width="2" stroke-miterlimit="10" d="M114.2,158.1c0.1,0.7,0.6,1.5,1.6,2.4
			c1,0.9,1.8,1.3,2.5,1.3c1,0,1.9-0.3,2.7-1c0.9-0.7,1.3-1.5,1.4-2.4c0.1-1,0.2-1.4,0.2-1.6c0.2-0.4,0.2-0.6,0.2-0.7
			c0-1-0.4-2.1-1.3-3.3c-0.9-1.2-1.7-1.9-2.6-2.1l-0.1,0l-0.1,0c-1.8,0.6-2.5,0.8-2.7,0.8c-1.5,0.2-2.3,1.4-2.3,3.6l0,0.4
			L114.2,158.1z" class="dOjYfgmv_1"></path>
		<path fill="none" stroke="#FFFFFF" stroke-width="2" stroke-miterlimit="10" d="M126.1,190.4c-0.7,0-1.6,0.6-2.8,1.8l-8.4,6.4
			c-1.3,0.5-2.2,0.9-2.7,1.3c-0.5,0.3-0.9,0.5-1.2,0.6l-0.1,0l-1.4,1.4l-0.9-0.1c-0.6,0-1,0.1-1.4,0.2c0.3-0.3,0.4-0.6,0.4-0.9v-2.6
			c0-0.1,0-0.1,0-0.2l0,0c0.5-0.5,0.8-0.9,0.8-1.2l-0.4-1.5c0,0,0-0.3,0.8-0.8l0.1-0.1l0.2-1.3c1-0.4,1.7-2.3,2.5-5.9l1.1-5.1
			c0-1.2-0.7-2.5-2.1-3.8c-1.4-1.3-2.8-2-4.1-2c-0.9,0-1.7,0.3-2.3,0.9c-0.5,0.5-1.1,0.9-1.8,1.3l-0.9,0.4l0,0.1
			c-0.5,0.7-1.1,1.2-1.8,1.7c-0.7,0.5-1.2,0.9-1.5,1.4c-0.3-0.1-0.6-0.1-0.9-0.1c-0.5,0-1.1,0.4-1.9,1.1c-0.8,0.8-1.3,1.1-1.5,1.2
			c-0.4,0.1-0.6,0.3-0.8,0.5l-1,0.8c-0.7,0.2-1.4,1-2.3,2.3l-0.6,0.2l-0.1,0.1c-0.7,0.8-1.1,0.9-1.2,0.9h-0.5l-1.2,1.1l0.2,0.5
			l-0.5,3c0,1.9,1.1,2.2,2.1,2.2c0.2,0,0.5-0.1,1.4-0.8c0.7-0.5,1.1-1.1,1.4-1.8c0.2-0.5,0.5-0.9,0.9-1l1.4-0.4
			c0.8-0.2,1.5-0.7,2-1.5l0-0.1l0-0.1c0-0.4,0.2-1.2,0.5-1.2h0.2l0.9,0.4l0.7-0.2l0.1-0.1c0.3-0.5,0.6-0.8,0.9-0.9
			c0.5-0.1,0.7-0.3,0.8-0.5c0.3-0.3,0.4-0.5,0.5-0.5l1.2,0.4l0.1-0.1c1.1-0.9,1.4-1,1.5-1c0.4,0,0.5,0.1,0.5,0.5c0,0,0,0.2-0.5,1
			c-0.4,0.7-0.6,1.3-0.7,1.9c-0.1,0.5-0.2,0.9-0.6,1.3l-0.6,0.9l-0.3,1.2c-0.2,0.8-0.4,1.3-0.5,1.7c-0.3,0.2-0.5,0.6-0.7,1.1
			l-0.3,1.6c-0.1,0.3-0.2,0.8-0.3,1.3c-0.1,0.5-0.2,0.9-0.4,1.2c-0.1,0.2-0.3,0.7-0.3,2.3l0.1,0.4l-0.1,0.9c0,0.1,0,0.2,0.4,1.3
			c0.3,0.9,0.4,1.2,0.4,1.2l-0.1,0.9v0.4c0,1.1,0.6,2.1,1.7,3c1.1,0.9,2,1.4,2.8,1.4h0l1.3-0.4l0.9,0.1c0.3,0,0.7-0.2,1.2-0.8
			c0.4-0.4,0.8-0.6,1.4-0.7c0.6,0,1.1-0.2,1.4-0.4l1.2-0.7c0.5-0.4,1.2-0.8,1.8-1c1-0.4,1.2-0.5,1.3-0.7l0.4-0.6l2.7-2
			c0.5-0.4,1.2-0.9,2-1.7c0.8-0.8,1.7-1.6,2.9-2.3c1.2-0.8,1.9-1.4,2.2-1.8c0.2-0.4,0.6-0.7,0.9-1.1c0.4-0.4,0.8-1,1.1-1.9
			c0.3-0.9,0.6-1.6,1-2.2c0.4-0.7,0.6-1.5,0.6-2.5C127.3,190.6,126.5,190.4,126.1,190.4z" class="dOjYfgmv_2"></path>
		<path fill="none" stroke="#FFFFFF" stroke-width="2" stroke-miterlimit="10" d="M153.5,200.4c-0.1-0.5-0.6-1.3-1.5-2.2l-0.5-0.5
			c-0.9-0.9-1.9-1.4-2.7-1.4c-0.5,0-0.9,0.1-1.2,0.2c-0.3,0.1-0.7,0.2-1.1,0.2c-0.3,0-1,0.3-2.9,2.1l-0.1,0.1
			c-0.3,0.9-0.8,1.7-1.4,2.5c-0.7,0.9-1.1,1.8-1.1,2.8c0,0.8,0.2,1.4,0.6,1.8c0.3,0.4,0.8,1.1,1.3,2.3c0.7,1.6,1.1,2,1.2,2.1
			c0.3,0.2,0.8,0.3,1.5,0.3c0.7,0.8,1.9,1.2,3.5,1.2c2,0,3.2-1.1,3.5-3.4c0.3-2,0.7-3.4,1.2-4c0.7-0.9,0.8-1.2,0.8-1.4
			c0-0.5-0.2-1-0.6-1.6C153.8,201.4,153.6,200.9,153.5,200.4z" class="dOjYfgmv_3"></path>
		<path fill="none" stroke="#FFFFFF" stroke-width="2" stroke-miterlimit="10" d="M173.1,130.5c-1.7,0-3.1,1.6-4.2,4.6
			c-1,2.9-1.8,4.7-2.3,5.4c-0.9,1.1-0.9,1.2-0.9,1.3v0.1l0.3,0.7c-1.3,0.4-2.1,1.3-2.3,2.4c-0.3,1.4-0.6,1.8-0.8,1.9
			c-0.5,0.3-0.8,0.9-1.1,2c-0.2,0.9-0.7,1.8-1.2,2.4c-0.6,0.7-1.2,2.1-1.9,4.3c-0.4,0.3-0.6,0.5-0.8,0.7l0,0l-0.6,2.5l-0.6,0.7
			l-0.9,2.5c-1.5,2.2-2.9,5.1-4.2,8.6l-3.3,8.7c0,0.2-0.2,0.6-0.6,1.4c-0.4,0.7-0.6,1.8-0.6,3.4c0,1.2,0.4,2.4,1.1,3.7
			c0.7,1.4,1.5,2.2,2.3,2.6l0.7,0.2c1.6,1.6,2.1,1.8,2.4,1.8c0.7,0,1.2-0.3,1.5-0.8l0.8-0.7c0.9-0.7,1.5-3,2-6.9l0.6-4.3
			c0.5-1,1-1.8,1.4-2.4l0-0.1v-2.2c0.7-0.5,1-0.8,1-1.2v-0.7l0.8-1l1.5-4.4c0.4-1.7,0.7-2.3,0.9-2.5c0.3-0.3,0.5-0.8,0.7-1.4
			c0.1-0.5,0.4-1,0.9-1.5c0.5-0.6,0.9-1.3,1.1-2.2l0.8-1.1c0.3-0.3,0.5-0.6,0.5-0.9l1.7-3.1l0.6-0.5l0,0c0.3-0.2,0.5-0.7,0.8-1.5
			c0.2-0.7,0.8-2,1.7-3.7c0.9-1.7,2.2-3.6,3.9-5.6c1.7-2,2.6-3.7,2.6-5.1c0-1.1-0.8-2.7-2.3-4.9C175.3,131.6,174,130.5,173.1,130.5z
			" class="dOjYfgmv_4"></path>
		<path fill="none" stroke="#FFFFFF" stroke-width="2" stroke-miterlimit="10" d="M261,139.1l0.2-0.6l0-0.1c0-1.6-0.3-2.8-0.8-3.5
			c-0.5-0.7-0.9-1.4-1.2-2l-0.3-0.5l-1.9-2.1c-0.8-0.6-1.3-1-1.5-1.4c0-0.3-0.3-0.4-0.7-0.5c-0.2-0.1-0.6-0.3-1.6-1.2l-1.8-0.6
			l-0.9,0c-1.6-0.5-2.9-0.8-4.1-0.8c0,0,0,0,0,0l-4.5,0.5c-1.1,0.3-1.4,0.4-1.4,0.4h-0.3c-0.7,0-1,0.4-1,1c0,0,0,0,0,0
			c-0.4-0.1-0.5-0.1-0.6-0.1c-0.7,0-1.3,0.3-1.6,1l-0.3,0.5h-0.4c-0.3,0-0.8,0.1-2.5,0.9l-0.1,0.1c-0.4,0.4-0.7,0.7-1.1,0.9
			c-0.5,0.2-0.8,0.4-1.1,0.8l-0.4,0.6l-1.7,1.1c-0.9,0.3-1.7,1.1-2.3,2.3c-1.4,0.7-2.6,1.7-3.6,2.9l0,0.1c-0.2,0.9-0.6,1.4-1.1,1.6
			c-0.7,0.2-1.2,0.6-1.3,1.3c-0.1,0.5-0.5,1-1,1.5c-0.7,0.6-0.9,0.9-1,1.1c-0.5,0.6-0.8,1.2-0.8,1.9c0,0.3-0.1,0.5-0.4,0.7
			c-1.6,1.4-2.8,3.4-3.6,6c-0.2,0.6-0.7,1.5-1.5,2.8c-1.3,2-1.3,2.2-1.3,2.4l0.1,2l-0.6,1.9l-0.1,1.7c0,2.5,0.3,4,1,4.5
			c0.6,0.5,1.5,0.8,2.5,0.8c1.2,0,2.3-0.5,3.4-1.5c1.1-1,1.6-2.1,1.6-3.4c0-0.4-0.4-1-1.2-1.9c-0.8-0.8-1-1.1-1-1.2
			c0-0.1,0.1-0.2,0.4-0.5c0.4-0.4,0.5-0.9,0.5-1.5v-0.3l0-0.1c-0.3-0.8-0.4-1.3-0.5-1.5c-0.1-0.1-0.1-0.3-0.1-0.4
			c0-0.1,0.1-0.3,0.6-0.8c0.5-0.5,0.8-1.3,0.8-2.5c0-0.3,0.2-1,1-2.5c0.8-0.5,1.2-1,1.4-1.6c0.1-0.3,0.5-1,2.3-2.8l4.2-4.4
			c1-1,2.3-1.9,3.9-2.9l0.1,0l0.2-0.3l0-0.1c0.3-1.6,0.7-1.6,0.7-1.6l0.7,0.2l0.1,0c0.4,0,0.8-0.4,1.3-1.2c0.4-0.7,1.2-1,2.5-1
			c0.5,0,1.4-0.3,2.7-0.9c1.3-0.6,2.3-0.8,2.9-0.9l0.7,0.1h0.1c0.2,0,0.4-0.1,0.7-0.2l0.9,0.2l1.2-0.3c2.1,0,2.8,0.3,3.1,0.5
			c0.4,0.4,1.2,0.8,2.6,1.3l0.2,0.5l0.1,0.1c0.6,0.5,0.6,0.8,0.6,0.8c0,0.6,0.1,1.1,0.4,1.5c0.2,0.4,0.3,0.5,0.3,0.5
			c0,1-0.4,2.1-1.2,3.3l-0.1,0.1l0.3,1.6c-0.2,0.4-0.4,0.7-0.4,1c0,0.2-0.1,0.5-0.6,1.1c-0.5,0.5-0.7,1.2-0.8,1.8
			c0,1.2-0.4,2.2-1.1,3c-1.1,1.2-1.3,1.6-1.3,1.9l0,0.3c0.1,0.5,0.1,0.7,0.1,0.8c0,0.6-0.5,1.1-1.4,1.7c-0.2,0-0.5,0.2-0.6,0.6
			c-0.1,0.3-0.2,0.4-0.4,0.5l-0.2,0.1l0.5,1.1c-0.5,0.6-0.7,0.8-0.9,0.8c-0.4,0.1-0.8,0.6-1.2,1.4c-0.6,1.2-0.6,1.3-0.6,1.4l0.1,1.3
			l-0.1,0.2c-0.8,0.1-1.5,0.7-2.1,1.8c-0.5,1.1-1.1,2.2-1.8,3.1c-0.6,0.9-1.2,2.1-1.7,3.6c-0.5,0.3-0.9,0.7-1.1,1.4
			c-0.2,0.6-0.3,1-0.5,1.2c-1.3,1.5-2.6,3.6-3.8,6.3l0,0.1l0.1,0.1c0.5,0.9,0.5,1.1,0.6,1.1c0,0.1-0.2,0.2-0.7,0.4
			c-0.6,0.2-1.1,0.4-1.4,0.7l-0.1,0.1c-0.3,0.9-0.7,1.6-1.1,2c-0.4,0.4-0.8,1-1.1,1.9c-0.3,0.8-0.7,1.4-1.3,2c-0.7,0.6-1,1.4-1,2.2
			v0.3l0,0.1c0.1,0.3,0.1,0.4,0.1,0.4c0,0-0.2,0.1-0.7,0.2l-0.2,0l0,0.2c-0.2,0.9-0.7,1.8-1.2,2.5c-0.6,0.7-0.9,1.4-1,2l-0.4,0.2
			l0,0.1c-0.3,0.9-0.5,1.7-0.6,2.3c-0.4,0.4-1.1,1.6-2.1,3.7l-1.9,3.9c-1.4,3.9-1.4,4.2-1.4,4.3l0.1,1.2l-0.1,0.3
			c-0.4,0.4-0.6,0.7-0.6,1c0,2.5,0.5,4.4,1.4,5.6l0.6,0.6c0.2,0.5,0.4,0.8,0.7,1l0.8,0.5c0.9,0.9,1.7,1.6,2.3,2
			c0.6,0.5,1.7,0.7,3.3,0.7c0,0,0,0,0,0l1.3-0.1l0.4,0c1.6-0.4,2.4-1.6,2.4-3.5c0-1.2-0.7-2.3-2.1-3.4c0.4-0.9,0.5-1.1,0.5-1.3
			l-0.3-2.3l0.4-2v-0.3l-0.2-0.3c0.1-0.1,0.2-0.1,0.5-0.3c0.5-0.2,0.9-0.7,1.2-1.3c0.2-0.5,0.6-1.1,1.2-1.8l0.1-0.1v-1.1l0.2-0.9
			c1.8-3.7,1.8-4,1.8-4.2c0-0.4-0.1-0.9-0.3-1.7c0.2,0,0.4,0.1,0.5,0.1c0.6,0,1.4-0.3,1.4-2v-0.5l0.6-1.3c0.6-0.7,1.2-1.4,1.5-2.3
			c0.3-0.9,0.6-1.5,0.9-1.9c0.3-0.4,0.6-0.9,1-1.4c0.3-0.5,0.7-1,1-1.3c0.3-0.4,0.6-1.2,0.7-2.5l0.1-0.1c0.7,0,1.3-0.5,1.8-1.4
			l2.2-4.5c1.1-1.1,1.6-2.1,1.6-3V176l1.4-1.3c1-0.5,1.6-1.2,1.9-2.1l0-0.1c0-1.1,0.4-2,1.1-2.6c0.8-0.7,1.3-1.4,1.5-1.9
			c0.1-0.5,0.4-1.2,0.7-2.3c0.9-1.5,1.5-2.7,1.8-3.7c0.2-0.9,0.8-2,1.8-3.4c1-1.4,1.5-2.5,1.6-3.4c0.5-0.5,0.7-1.2,0.7-2.2
			c0-0.1,0-0.3,0.5-0.7c0.5-0.5,0.7-0.8,0.7-1.1l-0.3-1.7v0c0.8-1.1,0.9-1.3,0.9-1.5c0-0.7,0.1-1.3,0.3-1.9c0.2-0.6,0.4-1.4,0.4-2.2
			l0-2l0.4-2.4C261.7,139.5,261.5,139.3,261,139.1z" class="dOjYfgmv_5"></path>
		<path fill="none" stroke="#FFFFFF" stroke-width="2" stroke-miterlimit="10" d="M292.4,148.6c1.8-2.5,2.2-3,2.3-3.1
			c0.1-0.1,0.3-0.3,0.7-1c0.2-0.5,0.8-1.3,1.6-2.3c0.8-1,1.3-2.3,1.3-3.7c1-0.9,1.5-1.7,1.5-2.5c0-0.4-0.2-1.2-2.2-3.8
			c-1.5-2-2.8-3-3.9-3c-0.8,0-1.4,0.2-1.9,0.7c-1.5,0.2-2.5,0.9-3,2c-0.7,1.3-1,1.8-1.1,1.9c-0.2,0.3-0.4,0.6-0.5,0.9
			c-0.1,0.3-0.3,0.6-0.5,1c-0.3,0.5-0.4,0.9-0.4,1.3l0.5,3.2l0.9,1.4c0.6,1,1,1.4,1.2,1.6c-0.2,1-0.9,2.1-2,3.1
			c-1.3,1.1-1.9,2.3-1.9,3.5c0,0.2,0,0.3,1.9,1.1c1.8,0.8,1.9,0.8,2,0.8C289.7,151.7,290.9,150.7,292.4,148.6z" class="dOjYfgmv_6"></path>
		<path fill="none" stroke="#FFFFFF" stroke-width="2" stroke-miterlimit="10" d="M371.1,193.1c0-0.4-0.2-1.2-1.3-1.2
			c-0.9,0-2.1,0.6-3.7,1.9c-1.6,1.3-2.5,2.2-2.8,2.9c-0.2,0.5-0.4,0.8-0.4,0.9l-1.5-0.1l-0.1,0c-0.9,0.5-1.4,1.1-1.4,1.8
			c0,0.3-0.1,0.8-0.3,0.8h-0.2c-0.3-0.1-0.4-0.2-0.6-0.2l0-0.1h-0.3l0,0.3l-0.1-0.1c0,0-0.2,0.1-0.3,0.2c-0.2,0.1-0.6,0.3-1,0.4
			c-0.4,0.1-0.7,0.2-1,0.4c-0.6-0.7-0.6-1-0.6-1.1l0.3-3.6l-0.1-1.1c0,0,0-0.2,0.7-0.9l0.1-0.1V194c0-0.2-0.1-0.4-0.6-1.1
			c-0.4-0.6-0.5-0.8-0.5-0.9l0.3-1.4l0-1.3l-0.4-1.9l0.3-1.5c0-0.7-0.5-1.6-1.6-2.7c-1.1-1.1-2.5-1.7-4.2-1.7
			c-0.3,0-0.8,0.2-1.4,0.7c-0.7,0.5-0.9,0.6-0.9,0.6l-0.7-0.3l-1.5,1.2c-0.3,0.1-0.6,0.4-1.1,0.8c-0.5,0.5-0.7,0.6-0.7,0.6l-0.1,0
			c-1.3,0.4-3.2,1.9-5.7,4.6l0,0.1c-0.1,0.4-0.4,0.6-0.8,0.8c-0.5,0.2-0.9,0.5-1.2,1c-0.3,0.5-0.5,0.5-0.5,0.5c-0.2,0-0.5,0.2-1,0.6
			l-0.9,0.9c-0.5,0.2-1.1,0.5-1.8,1.2c-0.2,0-0.5-0.1-0.5-0.9l0.7-3.2l-0.3-1.6l0.3-1.5l0-0.6c-0.4-1.9-0.5-2.6-0.5-2.8l0.3-2.2
			c0-1-0.7-2.1-2.1-3.3c-1.4-1.2-2.5-1.8-3.3-1.8c-0.7,0-1.3,0.3-1.8,0.9c-0.4,0.4-0.6,0.6-0.6,0.7l-0.9-0.3l-0.1,0
			c-0.3,0-0.9,0.1-2.7,1.3l-2.3,1.6l-0.1,0.1c-0.5,0.7-1.1,1.2-1.6,1.6l-1.8,0.8c-1,0.5-1.7,0.9-2.1,1.4c-0.3,0.4-0.9,0.9-1.6,1.4
			c-0.7,0.5-1.3,1-2,1.6l-0.1-0.2l0.1-1.1c0-3.4-0.5-5.4-1.5-6.2c-0.4-0.4-1-0.5-1.6-0.3l-4.3,1.1h-0.9l-0.1,0
			c-3.1,1.3-3.7,1.9-4,2.3l-0.2,0.4c-0.3,0.2-0.7,0.4-1,0.7c-0.3,0.3-0.7,0.6-1.3,0.9c-4.2,2.3-6.4,5.1-6.4,8.3
			c0,0.1,0.1,0.4,0.5,1.5c0.4,0.9,0.8,1.3,1.3,1.3c0.6,0,1.1-0.2,1.4-0.5c0.2-0.2,0.4-0.3,0.7-0.4c0.4-0.1,0.7-0.3,0.9-0.7
			c0.2-0.3,0.4-0.6,0.6-0.8c0.2-0.2,0.7-0.7,1.3-1.6c0.6-0.8,1.2-1.3,1.8-1.6l0.1,0l0-0.1c0.1-0.4,0.5-0.6,1-0.8
			c0.6-0.2,1.2-0.5,1.7-0.9c0.4-0.4,1-0.6,1.8-0.6c0.2,0,0.3,0.5,0.3,0.8c0,0.3-0.1,0.6-0.3,0.8c-0.2,0.3-0.4,0.7-0.4,1.2l-0.8,1.2
			c-0.6,0.6-1.4,1.6-2.5,3.2c-1.1,1.5-2.1,2.7-2.9,3.5l0,0.1c-0.5,1.1-1,2-1.6,2.7c-0.6,0.8-0.9,1.5-0.9,2.2c0,5.5,1.4,8.3,4.1,8.3
			c1.5,0,2.3-0.4,2.3-1.3l-0.2-1.1c0,0,0-0.2,0.6-0.5c0.6-0.3,0.9-0.6,1-0.9c0-0.1,0.3-0.5,1.5-2.1c1-1.4,1.4-1.8,1.4-2h0
			c0-0.1,0.3-0.3,1.6-0.9l0.1-0.1c0.5-0.7,0.9-1.3,1.3-1.9c0.3-0.5,0.6-0.9,1.1-1c0.8-0.2,1-0.7,1-1c0-2,0.4-3,1.2-3l1.4,0.3
			l0.4-0.4c1.4-2.3,1.8-2.6,1.8-2.7h0.2c0.1,0,0.1,0.1,0.2,0.1v0.2h0.3c0.5,0,0.5-0.3,0.5-0.3c0.3-1.7,0.9-2.7,1.7-3.1l0.1,0
			c0.9-0.8,1.6-1.5,2.1-2c0.5-0.5,1.5-1.3,2.9-2.3c2-1.3,2.4-1.4,2.5-1.5c0,0,0.1,0.1,0.3,0.4c0.3,0.4,0.3,0.5,0.3,0.5l-0.3,2
			l0.1,2.2l-0.3,1l0.4,1.8c-0.5,0.9-0.5,1-0.5,1.1v0.3l0,0.1c0.1,0.2,0.1,0.3,0.1,0.3v1.9c-0.5,1.4-0.5,1.5-0.5,1.5v0.3l0,0.1
			c0.4,0.7,0.5,0.9,0.5,0.9l-0.3,2.4c0,1.1,0.5,2.6,1.6,4.6c1.1,2,2,3,2.9,3c0.5,0,1.5-0.4,4.1-3.4l0.4-0.7c0.3-0.4,0.6-0.8,0.9-1.4
			l0.8-0.4l0-0.1c0.4-0.6,0.7-1,1.1-1.3l0.1,0l0.8-1.5c0.1,0,0.3-0.1,0.7-0.1h0.1l0.1-0.1c0.9-1.4,1.7-2.2,2.3-2.6
			c0.7-0.4,1.1-0.8,1.1-1.4l-0.1-0.5V196c0-0.3,0.2-0.6,0.6-0.9c0.3,0.1,0.4,0.1,0.5,0.1c0.3,0,0.5-0.2,0.9-0.7
			c0.3-0.4,0.8-0.8,1.5-1.2l0.1,0l0-0.1c0.6-1.2,1.1-1.6,1.3-1.7c0.5-0.2,0.9-0.5,1.2-0.9c0.4-0.4,0.5-0.4,0.5-0.4
			c0.6,0,0.7,0.3,0.7,0.5l-0.4,3.3l0,0l0.1,0.7l-0.3,1.1l0.1,2.3c0,0.2,0,0.5-0.1,0.8c-0.1,0.3-0.1,0.6-0.1,0.9
			c0,0.6,0.5,1.5,1.5,2.8c0,0.1-0.1,0.1-0.2,0.3c-0.3,0.3-0.4,0.5-0.4,0.6c0,1.7,0.4,3,1.1,3.6c0.7,0.6,1.2,1.1,1.6,1.6
			c0.4,0.5,1.2,1,2.4,1.5c1.2,0.5,1.9,0.7,2.4,0.7c1.1,0,2.3-0.8,3.8-2.4c1.8-1.9,2.3-2.5,2.5-2.6l1.4-0.9c0.1-0.1,0.3-0.2,0.8-0.3
			c0.5-0.1,0.9-0.5,1.3-1.3c0.3-0.6,0.4-0.8,0.5-0.8l1.3,0.1l0.3-0.3l0-0.1c0.7-1.4,1.8-2.5,3.1-3.5c1.5-1,2.2-1.9,2.2-2.8
			c0-0.5-0.2-1-0.5-1.6C371.1,193.4,371.1,193.2,371.1,193.1z M358.7,200.1L358.7,200.1c0,0.1-0.1,0.1-0.1,0.1c0,0-0.1-0.1-0.1-0.1
			L358.7,200.1z" class="dOjYfgmv_7"></path>
		<path fill="none" stroke="#FFFFFF" stroke-width="2" stroke-miterlimit="10" d="M647.7,157.5c0.8-0.2,1.1-0.2,1.2-0.3l1.6-0.3
			c2.7-0.8,3.3-0.9,3.3-1c0.3,0,0.7-0.1,1.2-0.3c0.4-0.2,0.9-0.2,1.3-0.2c0,0,0,0,0,0l0,0c1.4,1.8,1.6,1.8,1.8,1.8
			c1.1,0,2.1-0.7,3.2-2l3-3.7l0-0.1c0.3-0.8,0.6-1.5,1-2.1c0.4-0.7,0.7-1.2,0.7-1.5c0-1-0.4-2.1-2.4-2.1h-0.3l-1,0.4
			c-1.5,0.1-2.6,0.3-3.1,0.7c-0.6,0.4-0.8,0.5-0.9,0.5l-0.5-0.2l-0.9,0l-0.1,0c-0.7,0.3-1.2,0.5-1.5,0.5c-0.3,0-1,0.3-2.2,0.7
			c-1.4,0.5-1.7,0.6-1.7,0.6c-0.3,0-0.6-0.1-1-0.4l-0.1-0.1l-0.5,0.2c-0.8,0.4-1.2,0.5-1.3,0.5c-0.3,0-0.8,0-0.8-0.3
			c0-0.2,0-0.4,0.1-0.6c0.1-0.2,0.1-0.6,0.1-1.2c0-0.5,0.1-1.1,0.3-1.6c0.3-0.9,0.3-1,0.3-1l-0.6-2.5c-0.5-2.2-1.3-3.3-2.5-3.3
			c-0.9,0-2,0.8-3.3,2.3l0,0.1c-0.3,0.7-0.8,1.1-1.3,1.1c-0.2,0-0.5,0.2-0.7,0.8c-0.2,0.4-0.4,0.8-0.6,1c-0.7,1.5-1.4,2.5-2.1,3.1
			c-0.8,0.6-1.4,1.5-2,2.8c-0.8,1.6-1.1,1.7-1.1,1.7l-1.1-0.1c-0.1,0-0.3,0.1-0.5,0.2c-0.1,0-0.3,0.1-0.9,0.4
			c-0.6,0.2-1.2,0.5-2.1,0.9c-0.8,0.4-1.6,0.6-2.6,0.6l-0.6-0.2l-0.3,0l-0.7,0.7l-0.8,0.2c-0.7-0.2-0.9-0.2-1-0.2
			c-0.9,0-1.6,0.2-2.2,0.5c-0.7,0.4-0.9,0.4-1,0.4l-1.1,0.3c-0.4,0.2-1.2,0.3-2.2,0.5c-1.1,0.2-2,0.4-2.5,0.8
			c-0.5,0.3-0.9,0.5-1.3,0.5l-0.9-0.1l-2.7,0.7c-2,0.5-3.2,0.9-3.8,1.2c-0.7,0.4-1,0.4-1.1,0.4h-0.2l-0.7-0.2l-0.2,0l-2.6,1
			c0.2-0.4,0.4-0.9,0.4-1.3c0-1,0.2-1.4,0.2-1.6c0.2-0.4,0.2-0.6,0.2-0.7c0-1-0.4-2.1-1.3-3.3c-0.9-1.2-1.7-1.9-2.6-2.1l-0.1,0
			l-0.1,0c-1.9,0.6-2.5,0.8-2.7,0.8c-1.5,0.2-2.3,1.4-2.3,3.6l0,0.4l0.4,2.5c0.1,0.7,0.6,1.5,1.6,2.4c0.2,0.2,0.3,0.3,0.5,0.4
			c-3.8,1.3-5.7,3.5-5.7,6.6c0,0.8,0.3,1.7,0.9,2.7c0.6,1.1,1.2,1.6,1.8,1.6c0,0,0,0,0,0l0.5-0.1l0.1-0.1c2.2-1.9,3.1-2.5,3.4-2.6
			l6.5-1.8c0.5,0.1,0.7,0.1,0.8,0.1c0.7,0,1.7-0.4,3.1-1.1l1.5,0.1l0.1,0c0.8-0.5,1.2-0.6,1.4-0.6h0.6l2.7-0.8l0.1,0
			c1.2-0.8,3.1-1.3,5.6-1.5l2.8-0.3l0.9,0.1c0.3,0,0.5-0.2,0.9-0.7c0.3-0.3,0.7-0.7,1.3-1c0.7,0.2,0.9,0.3,1,0.4v0.3l3-1.4
			c0.1,0.1,0.1,0.2,0.2,0.3c-0.1,1.1-0.5,2.3-1.3,3.5c-0.8,1.3-1.4,2.4-1.7,3.2c-0.3,0.7-1.7,2.5-4.1,5.2c-2.4,2.7-4.1,4.4-5,5
			c-1,0.6-1.5,1.5-1.6,2.6l-0.2,0.1h-0.5l-0.5,0.4l-0.1,0.5l-0.5,0.3c-0.6,0-1.3,0.4-1.4,1.7l-0.1,0.1c-0.4,0.1-0.9,0.4-1.4,1.1
			c-0.5,0.6-1.3,1.4-2.4,2.3c-1.6,1.3-1.8,1.7-1.8,2c0,0.3-0.4,0.5-0.8,0.6c-0.7,0.2-1.1,0.6-1.4,1.1c-0.5,0.3-1,0.8-1.7,1.4
			l-8.4,6.4c-1.3,0.5-2.2,0.9-2.7,1.3c-0.5,0.3-0.9,0.5-1.2,0.6l-0.1,0l-1.4,1.4l-0.9-0.1c-0.6,0-1,0.1-1.4,0.2
			c0.3-0.3,0.4-0.6,0.4-0.9v-2.6c0-0.1,0-0.1,0-0.2l0,0c0.5-0.5,0.8-0.9,0.8-1.2l-0.4-1.5c0,0,0-0.3,0.8-0.8l0.1-0.1l0.2-1.3
			c1-0.4,1.7-2.3,2.5-5.9l1.1-5.1c0-1.2-0.7-2.5-2.1-3.8c-1.4-1.3-2.8-2-4.1-2c-0.9,0-1.7,0.3-2.3,0.9c-0.5,0.5-1.1,0.9-1.8,1.3
			l-0.9,0.4l0,0.1c-0.5,0.7-1.1,1.2-1.8,1.7c-0.7,0.5-1.2,0.9-1.5,1.4c-0.3-0.1-0.6-0.1-0.9-0.1c-0.5,0-1.1,0.4-1.9,1.1
			c-0.8,0.8-1.3,1.1-1.5,1.2c-0.4,0.1-0.6,0.3-0.8,0.5l-1,0.8c-0.7,0.2-1.4,1-2.3,2.3l-0.6,0.2l-0.1,0.1c-0.7,0.8-1.1,0.9-1.2,0.9
			h-0.5l-1.2,1.1l0.2,0.5l-0.2,1.3c-0.2-0.1-0.4-0.1-0.7-0.1c-0.9,0-2.1,0.6-3.7,1.9c-1.6,1.3-2.5,2.2-2.8,2.9
			c-0.2,0.5-0.4,0.8-0.4,0.9l-1.5-0.1l-0.1,0c-0.9,0.5-1.4,1.1-1.4,1.8c0,0.3-0.1,0.8-0.3,0.8h-0.2c-0.3-0.1-0.4-0.2-0.6-0.2l0-0.1
			h-0.3l0,0.3l-0.1-0.1c0,0-0.2,0.1-0.3,0.2c-0.2,0.1-0.6,0.3-1,0.4c-0.4,0.1-0.7,0.2-1,0.4c-0.6-0.7-0.6-1-0.6-1.1l0.3-3.6
			l-0.1-1.1c0,0,0-0.2,0.7-0.9l0.1-0.1V194c0-0.2-0.1-0.4-0.6-1.1c-0.4-0.6-0.5-0.8-0.5-0.9l0.3-1.4l0-1.3l-0.4-1.9l0.3-1.5
			c0-0.7-0.5-1.6-1.6-2.7c-1.1-1.1-2.5-1.7-4.2-1.7c-0.3,0-0.8,0.2-1.4,0.7c-0.7,0.5-0.9,0.6-0.9,0.6l-0.7-0.3l-1.5,1.2
			c-0.3,0.1-0.6,0.4-1.1,0.8c-0.5,0.5-0.7,0.6-0.7,0.6l-0.1,0c-1.3,0.4-3.2,1.9-5.7,4.6l0,0.1c-0.1,0.4-0.4,0.6-0.8,0.8
			c-0.5,0.2-0.9,0.5-1.2,1c-0.3,0.5-0.5,0.5-0.5,0.5c-0.2,0-0.5,0.2-1,0.6l-0.9,0.9c-0.5,0.2-1.1,0.5-1.8,1.2
			c-0.2,0-0.5-0.1-0.5-0.9l0.7-3.2l-0.3-1.6l0.3-1.5l0-0.6c-0.4-1.9-0.5-2.6-0.5-2.8l0.3-2.2c0-1-0.7-2.1-2.1-3.3
			c-1.4-1.2-2.5-1.8-3.3-1.8c-0.7,0-1.3,0.3-1.8,0.9c-0.4,0.4-0.6,0.6-0.6,0.7l-0.9-0.3l-0.1,0c-0.3,0-0.9,0.1-2.7,1.3l-2.3,1.6
			l-0.1,0.1c-0.5,0.7-1.1,1.2-1.6,1.6l-1.8,0.8c-1,0.5-1.7,0.9-2.1,1.4c-0.3,0.4-0.9,0.9-1.6,1.4c-0.7,0.5-1.3,1-2,1.6l-0.1-0.2
			l0.1-1.1c0-3.4-0.5-5.4-1.5-6.2c-0.4-0.4-1-0.5-1.6-0.3l-4.3,1.1h-0.9l-0.1,0c-3.1,1.3-3.7,1.9-4,2.3l-0.2,0.4
			c-0.3,0.2-0.7,0.4-1,0.7c-0.3,0.3-0.7,0.6-1.3,0.9c-2.1,1.1-3.7,2.4-4.7,3.8l-6.4,5.4c-3.3,1.8-5,3.1-5.5,3.9
			c0,0.1-0.3,0.4-1.8,1.3c-1.5,0.9-1.8,1-1.9,1c-0.1,0-0.1-0.2-0.1-0.4v-0.2c0.5-0.6,0.5-0.7,0.5-0.9l-0.3-3.6l0.1-0.3
			c0.4-0.9,0.6-1.6,0.7-2.2l0-0.1l0-0.1c-0.3-0.6-0.4-0.8-0.4-0.8c0,0,0,0,0,0c0-0.1,0.1-0.4,0.6-0.9l0,0l0-0.1
			c0.3-0.8,0.4-1.3,0.4-1.6c0-0.1,0-0.2-0.4-1c0.1-0.2,0.3-0.5,0.6-0.9c0.4-0.5,0.6-1,0.6-1.5c0-0.5,0.1-0.9,0.3-1.3
			c0.2-0.5,0.3-1.1,0.3-1.8c0,0,0.1-0.3,0.8-1.4c0.6-0.8,1-1.4,1.4-1.7c0.4-0.4,0.6-0.9,0.6-1.6l-0.3-1.7c0,0,0-0.3,0.3-1.7
			c0.2-1,0.3-1.3,0.4-1.4c1.3-0.4,1.9-1,1.9-2v-1c0.2-0.5,0.4-1.2,0.5-1.9c0.7-0.8,1.1-1.5,1.1-2.1c0-0.4-0.1-0.8-0.4-1.4
			c0.3-0.6,0.9-1.9,1.8-4.2c0.4-2.5,0.8-4.3,1.2-5.1c0.6-1.2,0.7-1.5,0.7-1.7c0-1.6-0.8-2.8-2.3-3.7c-1.5-0.8-2.5-1.2-3.1-1.2
			c-1.1,0-2,0.4-2.6,1.3c-0.5,0.8-1.1,1.6-1.8,2.4c-0.7,0.8-1.1,1.8-1.2,2.9c-0.6,0.4-1,1-1.3,1.9c-0.8,0.5-1.3,0.9-1.3,1.4v1.1
			l-0.1,0.1c-1.5,0.6-1.7,0.9-1.7,1.3l0.2,1.4c0,0.1-0.1,0.1-0.1,0.2l-1.3,1.3l-0.7,1.1c-0.4,0.4-0.7,0.9-1.1,1.7l-0.2,0.5
			c-0.2,0.4-0.3,0.8-0.3,1.2c0,0-0.1,0.3-1.2,0.7c-1,0.3-1.5,1.1-1.5,2.2c0,0.3,0,0.5,0.1,0.6c-0.7,0.3-1.4,1-2,1.9l0,0.1l0.1,1.4
			c0,0.1,0,0.3-0.5,0.4c-0.6,0.1-1,0.5-1.3,1.1c-0.2,0.5-0.6,0.9-1,1.2c-0.5,0.4-0.9,0.7-1,1.1c-0.1,0.3-0.7,1.1-1.6,2.4l-1.3,1.2
			c-1.5,2.2-2.7,3.6-3.5,4.4c-0.8,0.8-1.3,1.4-1.5,2c-0.2,0.6-0.3,0.8-0.3,0.8c-1.5,2-3.4,4.3-5.4,6.9c-2.7,3.4-3.3,3.9-3.4,4
			c-0.3,0.1-0.7,0.5-1.2,1c-0.5,0.5-1.5,1.3-3,2.5c-1.5,1.2-2.5,2-2.8,2.3c-0.2,0.2-0.7,0.4-2.5,0.4c-0.7,0-1.3-0.6-1.6-1.7
			c-0.4-1.2-0.5-2.3-0.5-3.1c0-0.1,0-0.2,0.1-0.2l0.4-1l0-0.1c0-0.4-0.1-0.8-0.3-1.3c-0.2-0.5-0.3-0.6-0.3-0.7l0.2-0.9l0-0.9
			c0.8-2.8,0.9-3.4,0.9-3.6v-0.4l0-0.1c-0.1-0.2-0.1-0.3-0.1-0.3c0,0,0-0.1,0.4-0.3c0.4-0.2,0.7-0.6,0.7-1.1l-0.4-0.9
			c0-0.1,0.2-0.2,0.5-0.6c0.4-0.5,0.6-1.3,0.6-2.4l0-0.3l-0.3-1c0-0.1,0-0.2,0.4-0.3l0.1,0l0.1-0.1c1.1-1.3,2.2-3.2,3.3-5.6l0-0.1
			l-0.3-1.8c0,0,0,0,0-0.1l0.1,0c0.5-0.3,1.1-0.9,1.8-1.8c0.7-0.9,1-1.6,1-2.1v-0.1c1.2-0.4,1.9-1.3,1.9-2.6v-0.3l-0.4-0.7
			c0.1-0.2,0.4-0.4,1.1-0.9c0.8-0.5,1.2-1.2,1.2-2.1c0.2-0.2,0.6-0.6,1.1-1c0.7-0.2,1-0.7,1-1.5l0-0.9c0,0,0.1-0.2,0.7-0.8
			c0.6-0.5,1.2-1.4,1.9-2.8c0.8-1.4,1.1-2.3,1.1-2.8v-0.1c2.3-1.8,3.3-3.1,3.3-4.1v-0.1l0-0.1c-0.1-0.3-0.1-0.4-0.1-0.4
			c0,0,0-0.1,0.1-0.2c1.7-0.6,2.7-1.4,3.1-2.3c0.4-1,0.7-1.3,0.8-1.3c0.3-0.1,0.7-0.4,1.2-0.7c0.4-0.3,0.8-0.6,1.2-0.7l0.1,0
			l0.8-1.4c0.7-0.4,1.2-1,1.5-1.8l0.7-0.6c0.5-0.5,0.7-0.6,0.8-0.7h0.5l0.5-0.3l0-0.1c0.4-1.1,0.6-1.4,0.7-1.4l1.3,0.1
			c0.2,0,0.3-0.1,0.4-0.3c0.8-1.1,1.8-1.9,2.8-2.3c1.2-0.5,2.2-1.2,3.2-2.3c0.9-1,1.8-1.6,2.7-1.9c0.9-0.3,1.7-0.7,2.3-1
			c0.4-0.3,0.6-0.4,0.7-0.4l0.1,0.1l0.6-0.3l1.2,0.4l0.1,0c0.3,0,0.7-0.1,1.1-0.4h0.1c0.4,0,0.8,0.1,0.8,1c0,2.9-1,5-3.1,6.2
			c-1.3,1-1.9,2.2-1.9,3.7c0,2.3,1.3,3.5,3.8,3.5c1.6,0,2.6-1.4,2.9-4l0.5-1.7c0.5-0.9,0.7-1.7,0.7-2.3c0-0.9,0.2-2.1,0.7-3.6
			c0.1-1.3,0.1-2.3,0.1-3.2c0-2-0.8-3.9-2.3-5.6l-0.1-0.1l-0.7-0.2h-0.1c-0.6-0.3-1-0.4-1.2-0.5l-0.1,0l-1.1,0.1
			c-0.8-0.3-1.7-0.4-2.7-0.4c-1.1,0-2.9,0.5-5.5,1.7c-2.6,1.1-4.1,2.1-4.7,3c-1.4,0.2-2.5,0.8-3.3,1.8c-1.5,0.5-2.3,0.9-2.4,1.4
			c-0.1,0.3-0.4,0.6-0.8,0.9c-0.5,0.3-1.1,0.6-1.9,1.1l-1.7,1.7c-0.4,0.3-0.8,0.6-1.2,1.2c-0.5,0.6-0.7,0.8-0.8,0.8l-0.1,0.1
			l-0.1,0.8l-0.2,0.2l-1.6,0.6l0,0.1c-0.3,0.4-1.1,1-2.2,1.9c-1.2,0.9-1.9,1.5-2.2,2l-0.6,0.7c-0.5,0.3-1,0.6-1.4,1.1
			c-0.4,0.4-0.9,1-1.5,1.5c-0.7,0.6-1.1,1.4-1.3,2.3c-0.8,0.4-1.3,0.8-1.6,1.2c-0.3,0.4-0.8,1.1-1.7,2.1c-1.1,1.3-1.3,1.8-1.4,2.2
			c-1.2,1.4-1.8,2.3-2,2.9c-0.1,0.3-0.4,0.9-1.5,2c-1,1-1.5,1.8-1.5,2.6l-0.5,0.7c-0.2,0.5-0.7,1-1.2,1.6c-0.6,0.7-1,1.3-1.1,1.8
			c-0.1,0.3-0.4,1-1.5,2.5c-1,1.3-1.9,3.2-2.8,5.9l-0.6,1.8l0,0.5l-0.1,1.4l-0.7,1c-1.1,1.1-1.9,2.3-2.2,3.7l-1.2,5
			c0,0.1,0.1,0.3,0.3,0.5c0.1,0.8,0.4,1.3,1,1.6c0.3,0.2,0.5,0.4,0.6,0.7c-0.6-0.6-0.9-0.7-1-0.7c-0.3,0-0.6,0.3-1,1
			c-0.4,0.6-0.5,1.2-0.5,1.6c0,0.4,0.2,0.9,0.6,1.4c-0.6,0.4-1,0.8-1,1.3c0,0.2,0.1,0.5,0.4,0.8c0.2,0.2,0.3,0.4,0.3,0.4
			c0,0.1,0,0.3-0.3,0.8c-0.2,0.5-0.3,1-0.3,1.7c0,3,0.9,5.9,2.7,8.6l2.7,2.5c0.5,0.8,1.3,1.2,2.4,1.2c1.6,1.2,3.2,1.9,4.9,1.9
			c0.1,0,0.4,0,1.3-0.4c0.6-0.2,1.4-0.5,2.3-0.6c0.9-0.2,1.7-0.5,2.3-1.1c0.8-0.1,1.3-0.3,1.6-0.7c0.3-0.3,1.1-1.1,2.6-2.3
			c0.8-1,1.5-1.7,2.2-2.1l0.1,0l0-0.1c0.5-0.8,1.2-1.6,2.1-2.6c1-1,1.5-1.7,1.5-2.3l0.6-0.6c0.8-0.5,1.1-0.9,1.1-1.4l-0.1-0.5
			l0.1-0.9l0.4,0.2l0.1,0c0.8,0,1.4-0.5,1.7-1.5c0.3-1,0.7-1.4,0.8-1.5c0.3-0.3,0.6-0.5,0.8-0.8l0.1-0.1l-0.3-1.3l0.7-0.5l0.1-0.7
			l0.2-0.2c0.7-0.2,1.3-0.8,1.8-1.9l0-0.1l-0.4-1.3l0.2-0.3l1.3,0.1c0.1,0,0.3-0.1,0.7-0.5l0.7-1.5c1.7-1.7,2.6-2.9,2.6-3.7
			c0-0.1,0-0.2-0.6-1.2c0.3-0.3,0.6-0.6,0.8-0.7c0.8-0.4,2.2-2.2,4.4-5.3c0,0.9-0.2,1.9-0.5,2.7c-0.5,1.4-0.5,1.7-0.5,1.9
			c0,0.6-0.2,1.3-0.5,2.2c-0.4,0.9-0.5,1.9-0.5,2.9c0,0.9-0.2,2.3-0.6,4.1c-0.4,1.9-0.6,3.3-0.6,4.2c0,1.5,0.4,3.3,1.2,5.3
			c0.8,2,1.8,3.2,2.9,3.6l0.9,1.1h1c0.5,0.8,1,1.2,1.7,1.2c0,0,0,0,0,0l3.4-0.6l1,0.1c0.3,0,0.7-0.2,1.2-0.6l0.7-0.5l0.7-0.2
			l0.1-0.1c1.6-1.6,2.9-2.4,3.8-2.4c0.5,0,0.8-0.6,0.9-1.1c0.2-0.6,0.6-1,1.2-1.3l0.5-0.3l0.1,0c0.4-0.4,1-0.8,1.7-1.1
			c0.8-0.4,1.3-0.8,1.6-1.2c0.2-0.4,0.5-0.6,0.9-0.8c0.4-0.2,0.7-0.4,0.9-0.7c0.1,0,0.2-0.1,0.3-0.1c0.4-0.1,0.7-0.3,0.9-0.7
			c0.2-0.3,0.4-0.6,0.6-0.8c0.2-0.2,0.7-0.7,1.3-1.6c0.6-0.8,1.2-1.3,1.8-1.6l0.1,0l0-0.1c0.1-0.4,0.5-0.6,1-0.8
			c0.6-0.2,1.2-0.5,1.7-0.9c0.4-0.4,1-0.6,1.8-0.6c0.2,0,0.3,0.5,0.3,0.8c0,0.3-0.1,0.6-0.3,0.8c-0.2,0.3-0.4,0.7-0.4,1.2l-0.8,1.2
			c-0.6,0.6-1.4,1.6-2.5,3.2c-1.1,1.5-2.1,2.7-2.9,3.5l0,0.1c-0.5,1.1-1,2-1.6,2.7c-0.6,0.8-0.9,1.5-0.9,2.2c0,5.5,1.4,8.3,4.1,8.3
			c1.5,0,2.3-0.4,2.3-1.3l-0.2-1.1c0,0,0-0.2,0.6-0.5c0.6-0.3,0.9-0.6,1-0.9c0-0.1,0.3-0.5,1.5-2.1c1-1.4,1.4-1.8,1.4-2
			c0-0.1,0.3-0.3,1.6-0.9l0.1-0.1c0.5-0.7,0.9-1.3,1.3-1.9c0.3-0.5,0.6-0.9,1.1-1c0.8-0.2,1-0.7,1-1c0-2,0.4-3,1.2-3l1.4,0.3
			l0.4-0.4c1.4-2.3,1.8-2.6,1.8-2.7h0.2c0.1,0,0.1,0.1,0.2,0.1v0.2h0.3c0.5,0,0.5-0.3,0.5-0.3c0.3-1.7,0.9-2.7,1.7-3.1l0.1,0
			c0.9-0.8,1.6-1.5,2.1-2c0.5-0.5,1.5-1.3,2.9-2.3c2-1.3,2.4-1.4,2.5-1.5c0,0,0.1,0.1,0.3,0.4c0.3,0.4,0.3,0.5,0.3,0.5l-0.3,2
			l0.1,2.2l-0.3,1l0.4,1.8c-0.5,0.9-0.5,1-0.5,1.1v0.3l0,0.1c0.1,0.2,0.1,0.3,0.1,0.3v1.9c-0.5,1.4-0.5,1.5-0.5,1.5v0.3l0,0.1
			c0.4,0.7,0.5,0.9,0.5,0.9l-0.3,2.4c0,1.1,0.5,2.6,1.6,4.6c1.1,2,2,3,2.9,3c0.5,0,1.5-0.4,4.1-3.4l0.4-0.7c0.3-0.4,0.6-0.8,0.9-1.4
			l0.8-0.4l0-0.1c0.4-0.6,0.7-1,1.1-1.3l0.1,0l0.8-1.5c0.1,0,0.3-0.1,0.7-0.1h0.1l0.1-0.1c0.9-1.4,1.7-2.2,2.3-2.6
			c0.7-0.4,1.1-0.8,1.1-1.4l-0.1-0.5V196c0-0.3,0.2-0.6,0.6-0.9c0.3,0.1,0.4,0.1,0.5,0.1c0.3,0,0.5-0.2,0.9-0.7
			c0.3-0.4,0.8-0.8,1.5-1.2l0.1,0l0-0.1c0.6-1.2,1.1-1.6,1.3-1.7c0.5-0.2,0.9-0.5,1.2-0.9c0.4-0.4,0.5-0.4,0.5-0.4
			c0.6,0,0.7,0.3,0.7,0.5l-0.4,3.3l0,0l0.1,0.7l-0.3,1.1l0.1,2.3c0,0.2,0,0.5-0.1,0.8c-0.1,0.3-0.1,0.6-0.1,0.9
			c0,0.6,0.5,1.5,1.5,2.8c0,0.1-0.1,0.1-0.2,0.3c-0.3,0.3-0.4,0.5-0.4,0.6c0,1.7,0.4,3,1.1,3.6c0.7,0.6,1.2,1.1,1.6,1.6
			c0.4,0.5,1.2,1,2.4,1.5c1.2,0.5,1.9,0.7,2.4,0.7c1.1,0,2.3-0.8,3.8-2.4c1.8-1.9,2.3-2.5,2.5-2.6l1.4-0.9c0.1-0.1,0.3-0.2,0.8-0.3
			c0.5-0.1,0.9-0.5,1.3-1.3c0.3-0.6,0.4-0.8,0.5-0.8l1.3,0.1l0.3-0.3l0-0.1c0.7-1.4,1.8-2.5,3.1-3.5c1.5-1,2.2-1.9,2.2-2.8
			c0-0.1,0-0.1,0-0.2c0.3,0.1,0.6,0.2,0.9,0.2c0.2,0,0.5-0.1,1.4-0.8c0.7-0.5,1.1-1.1,1.4-1.8c0.2-0.5,0.5-0.9,0.9-1l1.4-0.4
			c0.8-0.2,1.5-0.7,2-1.5l0-0.1l0-0.1c0-0.4,0.2-1.2,0.5-1.2h0.2l0.9,0.4l0.7-0.2l0.1-0.1c0.3-0.5,0.6-0.8,0.9-0.9
			c0.5-0.1,0.7-0.3,0.8-0.5c0.3-0.3,0.4-0.5,0.5-0.5l1.2,0.4l0.1-0.1c1.1-0.9,1.4-1,1.5-1c0.4,0,0.5,0.1,0.5,0.5c0,0-0.1,0.2-0.5,1
			c-0.4,0.7-0.6,1.3-0.7,1.9c-0.1,0.5-0.2,0.9-0.6,1.3l-0.6,0.9l-0.3,1.2c-0.2,0.8-0.4,1.3-0.5,1.7c-0.3,0.2-0.5,0.6-0.7,1.1
			l-0.3,1.6c-0.1,0.3-0.2,0.8-0.3,1.3c-0.1,0.5-0.2,0.9-0.4,1.2c-0.1,0.2-0.3,0.7-0.3,2.3l0.1,0.4l-0.1,0.9c0,0.1,0,0.2,0.4,1.3
			c0.3,0.9,0.4,1.2,0.4,1.2l-0.1,0.9v0.4c0,1.1,0.6,2.1,1.7,3c1.1,0.9,2,1.4,2.8,1.4h0l1.3-0.4l0.9,0.1c0.3,0,0.7-0.2,1.2-0.8
			c0.4-0.4,0.8-0.6,1.4-0.7c0.6,0,1.1-0.2,1.4-0.4l1.2-0.7c0.5-0.4,1.2-0.8,1.8-1c1-0.4,1.2-0.5,1.3-0.7l0.4-0.6l2.7-2
			c0.5-0.4,1.2-0.9,2-1.7c0.8-0.8,1.7-1.6,2.9-2.3c1-0.7,1.7-1.2,2-1.7c0.1-0.1,0.3-0.2,0.4-0.3c0.2-0.2,0.5-0.4,1-0.7
			c0.5-0.3,0.9-0.7,1.2-1.2c1.6-0.5,2.7-1.4,3.2-2.6c0.7-0.1,1.4-0.8,2-2.2l0.1-0.1c0.8,0,1.7-0.4,2-2l0.1,0c1,0,1.7-0.5,2.3-1.5
			c0.5-0.8,1.1-1.3,1.9-1.4l0.1,0l0.1-0.1c1.3-2.1,1.8-2.7,2-2.9c0.2,0.1,0.3,0.1,0.3,0.2l0.2,0.2l0.7-1.1c0.6-0.5,1.2-1,1.6-1.5
			c0.1-0.1,0.2-0.2,0.3-0.3c-0.3,0.3-0.3,0.4-0.3,0.5v2l-1.5,5.6l0.3,1.4l-0.4,5.6l0,0l0.4,1.3l-0.1,2.5c0,1,0.6,3.1,1.7,6.5
			c1.2,3.4,2.9,5.1,5.3,5.1c0.5,0,1.1-0.3,1.7-0.9c0.7-0.6,1-1.2,1.1-1.9c0-0.6,0.1-1.1,0.3-1.6c0.1-0.5,0.2-0.9,0.2-1.2
			c0-3.1-0.7-5.4-2-6.9c-1.2-1.4-1.8-2.7-1.8-3.8c0,0,0-0.1,0.2-0.2l0.1-0.1l0-0.1c-0.3-1-0.4-1.7-0.4-2l0.4-2.9l0,0l-0.1-1
			c0.7-1.4,1-2.6,1-3.6l0-0.4c-0.1-0.5-0.1-0.6-0.1-0.6c0-0.1,0.1-0.6,0.9-3.2l0-0.1l-0.3-1c0-0.6,0.2-1.1,0.7-1.6l0.3-0.6l0-0.1
			c0-0.4,0.1-0.5,0.1-0.5c0.1-0.1,0.3-0.4,0.6-1.5c0.2-0.8,0.5-1.5,1-2.2c0.5-0.7,0.9-1.4,1.4-2l1.1-1.7c0.3-0.3,0.7-0.6,1.1-1.1
			c0.3-0.4,0.7-0.6,1.1-0.7l0.1,0l0.3-0.5l0-0.1c0.3-0.8,0.8-1.3,1.7-1.5l0.1,0l2.9-5.3c0.5-0.4,0.7-0.5,0.7-0.7
			c0.6-1.5,1.4-2.5,2.5-3L647.7,157.5z M553.5,200.1L553.5,200.1c0,0.1-0.1,0.1-0.1,0.1c0,0-0.1-0.1-0.1-0.1L553.5,200.1z" class="dOjYfgmv_8"></path>
		<path fill="none" stroke="#FFFFFF" stroke-width="2" stroke-miterlimit="10" d="M700.2,189.6c-0.4-0.5-0.8-0.7-1.1-0.7
			c-0.8,0-1.6,0.6-2.3,1.7c-0.7,1-1.4,1.7-2.1,2c-0.9,0.4-1.4,0.9-1.5,1.6c-0.1,0.5-0.4,0.7-0.9,0.7h-0.1l-1.1,1
			c-0.5,0.4-1,1-1.4,1.6l-0.6,0.2c-0.2,0.1-0.6,0.3-1.4,1.4c-0.6,0.7-1.5,1.3-2.7,1.6c-0.1-0.2-0.3-0.6-0.3-1.3l0.3-1.9l-0.1-1.6
			c0-0.3,0.2-0.6,0.5-1c0.4-0.5,0.6-0.9,0.6-1.2l0.9-2.7c0.1-0.4,0.2-0.7,0.3-1.1c2.5-2.5,3.8-5.2,3.8-8.1c0-2.5-1-3.8-3-3.8
			c-2.7,0-4.4,0.8-5.3,2.5c-1,2.1-1.5,2.2-1.6,2.2c-0.2,0-0.3-0.4-0.4-0.9c-0.3-3.8-1.8-5.8-4.6-5.8c-0.3,0-0.5,0.1-0.8,0.2l-1,0.5
			h0c-0.9-0.5-1.1-0.5-1.3-0.5h-0.4l-0.1,0c-2.7,1.4-3.2,1.6-3.3,1.6h-0.5c-0.6,0-1.4,0.3-2.4,0.9c-1,0.5-1.9,1-2.9,1.4
			c-1,0.4-2,1-2.8,1.8c-1,1-1.4,1.2-1.5,1.2c-1.8,0.9-3.4,2.1-5,3.7l-1.9,1.9c-1.1,0.8-1.9,1.4-2.3,2.1c-0.4,0.6-0.9,1.2-1.5,1.7
			c-0.7,0.6-1,1.2-1,1.7l-0.6,0.7c-0.2,0.1-0.6,0.6-1.5,2.1c-1.2,1.8-1.2,2-1.2,2.2l0.1,1.5c-1,0.1-1.2,0.6-1.2,1l0.1,2.1v0.3
			c-0.1,0.2-0.1,0.6-0.1,1.1c0,1.1,0.2,2,0.6,2.6l0.6,2.6c0.1,1,1,1.8,2.7,2.5c1.6,0.7,3,1,4.2,1c1.5,0,3.9-1.1,7.5-3.5l0.4-0.4
			c1-0.5,1.7-0.9,2.3-1.3l4.9-4c0.6-0.4,1.2-1,1.6-1.7c0.4-0.6,0.5-0.9,0.6-1l1.2,0.1l0.8-0.8c0.2-0.3,0.5-0.5,1-0.7
			c0.6-0.2,1-0.5,1.1-0.9l0.2-0.3c0.5-0.3,1-0.7,1.3-1.2l0-0.1c0.2-0.7,0.4-1.2,0.7-1.4c0.6,0,1.2-0.3,1.7-0.7
			c0.6-0.5,0.7-0.6,0.7-0.6c0,0,0,0,0,0.1l-0.4,3.2c0,0.2,0,0.4,0.1,0.7c0.1,0.2,0.1,0.4,0.1,0.6c0,0.1,0,0.2-0.1,0.2
			c-0.1,0.1-0.2,0.3-0.2,0.6c0,0.2,0.1,0.5,0.4,0.8c0.2,0.3,0.3,0.4,0.3,0.4l-0.3,1.3c0,0.9,0.2,1.6,0.6,2.2
			c0.4,0.6,0.6,0.9,0.6,1.1c0,0.4,0.2,0.7,0.5,1l0.1,0.1l0.1,0c0.7,0.1,1.4,0.3,2,0.6c0.7,0.3,1.5,0.5,2.4,0.5c0.1,0,0.4,0,1-0.4
			c0.4-0.2,1.1-0.5,2-0.7c1-0.3,1.7-0.6,2.1-1.1l0.1-0.1l0.1-0.6c0.6-0.2,1-0.4,1.4-0.6l0.1-0.1c0.6-0.7,1.2-1.1,1.8-1.2
			c0.7-0.1,1.2-0.5,1.5-1.3c0.3-0.6,0.9-1.1,1.8-1.4l0.1,0l0.7-0.9c0.8-0.6,1.3-1.1,1.6-1.5c0.2-0.3,0.6-0.7,1.2-1l0.1,0l0.5-0.9
			l0.3-1.8c0.9-1.5,1.3-3,1.3-4.5C700.8,190.5,700.6,190.1,700.2,189.6z M655.8,204.6c-0.1,0.1-0.4,0.3-1.8,0.9
			c-1.3,0.5-1.9,0.7-2.1,0.7c-0.8,0-1-1.6-1-2.9c0-0.2,0.1-0.6,0.7-1.2c0.5-0.6,0.8-1.3,0.9-2.1c0.1-0.6,0.3-1,0.7-1.1
			c0.5-0.2,1-0.5,1.4-0.8l0.5-1.2l0,0c0.1-0.1,0.3-0.4,1.6-1.4l0.1-0.1l0-0.1c0.3-1.1,0.9-1.8,1.8-2.1l0.1,0c1.7-1.2,2.7-2.1,3-2.7
			c0.6-0.1,1.4-0.5,2.4-1.3c1.1-0.8,2.3-1.4,3.7-1.7c1.4-0.4,2.4-0.7,2.9-1c0.5-0.3,1-0.4,1.6-0.4l1.3,0.3l0.8-0.1l0.9,0.4l1.2-0.1
			l1.2,0.1l0.5-0.3l0.1,0c-0.1,0.2-0.4,0.8-2.2,2.6c-1.5,1.5-2.7,2.6-3.5,3.2l-0.1,0l0,0.1c-0.2,0.5-0.6,0.9-1.5,1.4
			c-0.9,0.5-1.5,1.3-1.7,2.2c-0.6,0.3-1,0.6-1.3,0.9c-0.1,0.2-0.5,0.5-1.7,1l-1.3,1c-1.6,0.9-2.8,1.6-3.6,2l-0.1,0.1
			c-0.3,0.4-0.7,0.8-1.2,1c-0.6,0.3-1,0.6-1.2,0.8c-0.2,0.2-0.3,0.3-0.5,0.3c-0.3,0.1-0.5,0.2-0.7,0.4l-1.2,0.6
			C656.4,204.2,656,204.4,655.8,204.6z" class="dOjYfgmv_9"></path>
	</g>
</g>
<g id="Layer_2" display="none">
	<path display="inline" fill="none" stroke="#000000" stroke-miterlimit="10" d="M0.5,26.8c0,0-1.2-2.2,8.6-7.4s28.1-16,34.1-13.2
		s6.7,0.1,6.5,5S48.6,24.1,38,40.4S70,37,70,37S84,6.5,84.5,2.5s6.6-0.7,6.6-0.7s4.7,1.1,1,8.4S81.4,32.3,81.4,32.3L81,34.2l5,0.1
		l5,0.6l2.3,2.5l-1.5,3.8l-3.6,1.7l-2.4-1l-1.7,0.3l-5.4-0.5L76,42.2l-4.4,9.3L67.2,59l-4.5,9.6l-3.1,5.8l-2,6.4l0.5,5.8l0.9,1.2
		l-1.7,3l-2.9,0.6L50.7,90l-2.1-2.7l-1-3.3l0-8.3l1.1-5.8l-2.8-5.4l-2-3.2L38.5,58l-3.5-1.8l-5.7-1.7l-1.2,0.7l-6.6,13.5L16,81.8
		l-4,5.9l0.3,4.6L12,94.7H8.4l-3.1-4l-1.8-4.7L5,78.8l4.5-8.8l1.6-6.7l3.6-9.3l-4.9-0.1l-0.5-2l0.9-4.1l5.5-3.1l5.8-1.3l6.6-6.1
		l2.7-5.6l1.3-1.5l2.6-5.3l4.8-8l0.2-2.2l-3.9-1.9l-19.7,9l-2,2.6l-4.1,4l-4.9,3.3l-4-2L0.5,26.8z" class="dOjYfgmv_10"></path>
</g>
<style>.dOjYfgmv_0{stroke-dasharray:670 672;stroke-dashoffset:671;animation:dOjYfgmv_draw 496ms linear 0ms forwards;}.dOjYfgmv_1{stroke-dasharray:32 34;stroke-dashoffset:33;animation:dOjYfgmv_draw 24ms linear 496ms forwards;}.dOjYfgmv_2{stroke-dasharray:170 172;stroke-dashoffset:171;animation:dOjYfgmv_draw 126ms linear 521ms forwards;}.dOjYfgmv_3{stroke-dasharray:46 48;stroke-dashoffset:47;animation:dOjYfgmv_draw 34ms linear 647ms forwards;}.dOjYfgmv_4{stroke-dasharray:145 147;stroke-dashoffset:146;animation:dOjYfgmv_draw 108ms linear 682ms forwards;}.dOjYfgmv_5{stroke-dasharray:357 359;stroke-dashoffset:358;animation:dOjYfgmv_draw 265ms linear 790ms forwards;}.dOjYfgmv_6{stroke-dasharray:60 62;stroke-dashoffset:61;animation:dOjYfgmv_draw 45ms linear 1055ms forwards;}.dOjYfgmv_7{stroke-dasharray:343 345;stroke-dashoffset:344;animation:dOjYfgmv_draw 254ms linear 1100ms forwards;}.dOjYfgmv_8{stroke-dasharray:1385 1387;stroke-dashoffset:1386;animation:dOjYfgmv_draw 1026ms linear 1355ms forwards;}.dOjYfgmv_9{stroke-dasharray:279 281;stroke-dashoffset:280;animation:dOjYfgmv_draw 207ms linear 2381ms forwards;}.dOjYfgmv_10{stroke-dasharray:554 556;stroke-dashoffset:555;animation:dOjYfgmv_draw 410ms linear 2589ms forwards;}@keyframes dOjYfgmv_draw{100%{stroke-dashoffset:0;}}@keyframes dOjYfgmv_fade{0%{stroke-opacity:1;}94.44444444444444%{stroke-opacity:1;}100%{stroke-opacity:0;}}</style></svg>
